# xmcd
#
# Track frame offsets:
#	150
#	36784
#	69300
#	103966
#	134065
#	164148
#	199375
#	229239
#	261159
#	294951
#
# Disc length: 4352 seconds
#
# Revision: 1
# Processed by: cddbd v1.5.1PL0 Copyright (c) Steve Scherf et al.
# Submitted via: EasyCDDAExtractor 7.0.3.1
#
DISCID=9f10fe0a
DTITLE=Various Artist - DJ PROMOTION CD POOL TECHNO 30
DYEAR=2005
DGENRE=Techno
TTITLE0=DJ KC - ENJOY THE FREAK
TTITLE1=THE PRODIGY  - SPITFIRE
TTITLE2=DJ'S @ WORK - YOUR LOVE
TTITLE3=STONEBRIDGE FT. ULTRA NATE - FREAK ON
TTITLE4=MIKE MH-4 - ELECTRICA SALSA 
TTITLE5=SCOOTER - TRANCE - ATLANTIC
TTITLE6=NEW ORDER - JETSTREAM
TTITLE7=RAMMSTEIN - KEINE LUST
TTITLE8=ALCHEMIST - I'M HYPNOTIZED
TTITLE9=D.L.A. KRU - TO MANY TROUBLES
EXTD=
EXTT0=
EXTT1=
EXTT2=
EXTT3=
EXTT4=
EXTT5=
EXTT6=
EXTT7=
EXTT8=
EXTT9=
PLAYORDER=
